<?xml version="1.0" standalone="no"?>
<svg xmlns="http://www.w3.org/2000/svg" viewBox="0 0 248.592 36" width="248.592" height="36"><g fill="#ff8600" color="#ff8600" transform="translate(220.592, 3.9999999999999982) scale(0.2800001)"><svg width="100.0" height="100.0" x="0.0" y="0.0" viewBox="0 0 100 100"><title></title><path d="M83,23.42a12.2,12.2,0,0,0,4.53-11.55A12,12,0,0,0,77.68,1.71a12.28,12.28,0,0,0-9.91,21.71,17.18,17.18,0,0,0-13.36,7.85l-5.77,3.41-2.88-5a14.16,14.16,0,0,0-12.23-7.07h-.67A12.31,12.31,0,0,0,37.45,11,12.14,12.14,0,0,0,27.53.71a12.39,12.39,0,0,0-10,21.91H15.44A14.52,14.52,0,0,0,.93,37.13v22.2a7.44,7.44,0,0,0,9.92,7V91.07a8.42,8.42,0,0,0,14.35,6,8.42,8.42,0,0,0,14.35-6V48.91a8.71,8.71,0,0,0,11.28,2l.84-.51v8.13a7.23,7.23,0,0,0,9.47,6.88v25.7a8.36,8.36,0,0,0,14.22,6,8.36,8.36,0,0,0,14.23-6V65.44a7.23,7.23,0,0,0,9.47-6.88v-18A17.19,17.19,0,0,0,83,23.42ZM48.25,46.66a3.69,3.69,0,0,1-4.79-.88L39,40.14a2.5,2.5,0,0,0-4.47,1.54V91.07a3.43,3.43,0,1,1-6.85,0V67.19a2.5,2.5,0,0,0-5,0V91.07a3.43,3.43,0,1,1-6.85,0V41.68a2.5,2.5,0,0,0-2.5-2.5h0a2.5,2.5,0,0,0-2.5,2.5v17.6s0,0,0,0a2.46,2.46,0,1,1-4.92,0V37.13a9.52,9.52,0,0,1,9.51-9.51h3.17a4.66,4.66,0,0,0,2.56-8.56A7.39,7.39,0,0,1,26.63,5.63a7.2,7.2,0,0,1,5.88,6.08,7.37,7.37,0,0,1-3.24,7.34,4.66,4.66,0,0,0-.76,7.2,4.63,4.63,0,0,0,3.3,1.37h1.72a9.14,9.14,0,0,1,7.9,4.56l4.14,7.18a2.5,2.5,0,0,0,3.44.9l2.79-1.65a17.21,17.21,0,0,0-.12,1.93v4Zm45.82,11.9a2.24,2.24,0,1,1-4.47,0V42.11a2.5,2.5,0,0,0-5,0V58.56c0,.13,0,.25,0,.37s0,.12,0,.19v32a3.36,3.36,0,0,1-6.73,0V67.51a2.5,2.5,0,0,0-5,0V91.14a3.36,3.36,0,1,1-6.72,0v-32c0-.06,0-.12,0-.19s0-.25,0-.37V42.11a2.5,2.5,0,0,0-5,0V58.56a2.24,2.24,0,0,1-4.47,0v-18A12.18,12.18,0,0,1,68.84,28.39a4.64,4.64,0,0,0,2.54-8.52A7.28,7.28,0,0,1,76.78,6.63a7.09,7.09,0,0,1,5.79,6,7.26,7.26,0,0,1-3.2,7.24,4.64,4.64,0,0,0,2.54,8.52A12.18,12.18,0,0,1,94.07,40.56Z"></path></svg></g><path fill="#27187e" fill-rule="nonzero" d="M5.57 0L5.57 0Q7.13 0 8.22 0.53Q9.31 1.06 9.31 1.87L9.31 1.87Q9.31 2.23 9.13 2.50Q8.95 2.76 8.60 2.76Q8.26 2.76 7.10 2.22Q5.95 1.68 5.00 1.68Q4.06 1.68 3.05 2.28Q2.04 2.88 2.04 3.74L2.04 3.74Q2.04 4.92 3.26 5.47L3.26 5.47Q4.18 5.88 5.88 6.20Q7.58 6.53 8.66 7.52Q9.74 8.52 9.74 10.54L9.74 10.54Q9.74 13.61 7.90 15.07L7.90 15.07Q6.86 15.89 4.98 15.89Q3.10 15.89 1.22 14.86L1.22 14.86Q0 14.21 0 13.56L0 13.56Q0 13.32 0.20 13.03Q0.41 12.74 0.77 12.55Q1.13 12.36 1.43 12.49Q1.73 12.62 2.40 12.96Q3.07 13.30 3.38 13.42L3.38 13.42Q4.39 13.80 5.28 13.80Q6.17 13.80 7.00 12.92Q7.82 12.05 7.82 10.78L7.82 10.78Q7.82 9.10 6.14 8.42L6.14 8.42Q5.33 8.09 4.30 7.92L4.30 7.92Q2.16 7.54 1.08 6.64Q0 5.74 0 3.91Q0 2.09 1.56 1.04Q3.12 0 5.57 0ZM14.06 4.80L14.06 4.80Q15.79 4.80 16.84 5.56Q17.88 6.31 17.88 7.58L17.88 7.58Q17.88 9.55 16.66 10.49L16.66 10.49Q15.77 11.16 14.26 11.16L14.26 11.16Q13.68 11.16 13.01 11.06L13.01 11.06Q13.08 12.48 13.08 13.52Q13.08 14.57 13.03 15.34L13.03 15.34Q12.98 15.89 12.34 15.89Q11.69 15.89 11.48 15.62Q11.28 15.36 11.28 14.83L11.28 14.83L11.28 5.81Q11.33 4.80 14.06 4.80ZM12.96 6.50L12.96 6.50Q12.91 7.22 12.91 8.05Q12.91 8.88 12.91 9.36L12.91 9.36Q13.54 9.43 14.30 9.43Q15.07 9.43 15.58 9.14L15.58 9.14Q16.27 8.76 16.27 7.70L16.27 7.70Q16.27 7.61 16.27 7.49L16.27 7.49Q16.22 6.86 15.12 6.58L15.12 6.58Q14.50 6.41 13.97 6.41Q13.44 6.41 12.96 6.50ZM21.84 14.98L21.84 15Q21.84 15.36 21.50 15.62Q21.17 15.89 20.76 15.89L20.76 15.89Q20.23 15.89 20.23 15.41L20.23 15.41Q20.14 14.28 20.14 6.46L20.14 6.46Q20.14 5.69 21.06 5.26Q21.98 4.82 23.53 4.82Q25.08 4.82 26.24 5.59Q27.41 6.36 27.41 7.44L27.41 7.44Q27.41 7.97 26.95 8.62Q26.50 9.26 25.98 9.64Q25.46 10.01 24.50 10.54Q23.54 11.06 23.33 11.11L23.33 11.11Q24.84 12.07 26.02 13.20Q27.19 14.33 27.19 14.98Q27.19 15.62 26.62 15.82L26.62 15.82Q26.45 15.86 26.18 15.86Q25.92 15.86 25.51 15.35Q25.10 14.83 23.98 13.86Q22.85 12.89 21.74 12.12L21.74 12.12Q21.79 14.04 21.84 14.98L21.84 14.98ZM21.74 9.98L21.74 9.98Q22.54 9.98 24.12 9.20Q25.70 8.42 25.78 7.75L25.78 7.75Q25.78 7.10 25.06 6.78Q24.34 6.46 23.54 6.46L23.54 6.46Q22.63 6.46 21.77 6.67L21.77 6.67Q21.74 7.82 21.74 9.98ZM31.58 10.49L31.58 10.49L31.63 13.63Q31.63 14.26 31.61 14.30L31.61 14.30L35.76 14.23Q36.46 14.30 36.46 14.83L36.46 14.83Q36.46 15.84 35.52 15.84L35.52 15.84L30.82 15.89Q30.38 15.89 30.18 15.59Q29.98 15.29 29.95 14.95Q29.93 14.62 29.93 14.21L29.93 14.21L29.93 10.22Q29.62 10.06 29.62 9.72Q29.62 9.38 29.88 9.12L29.88 9.12Q29.81 7.25 29.81 5.71L29.81 5.71Q29.81 4.82 30.89 4.80L30.89 4.80Q31.18 4.80 31.56 4.80L31.56 4.80L35.76 4.87L35.78 4.87Q36.55 4.97 36.55 5.59L36.55 5.59Q36.55 6.07 36.26 6.24L36.26 6.24Q35.64 6.58 33.26 6.58L33.26 6.58Q32.38 6.58 31.49 6.50L31.49 6.50Q31.49 8.66 31.51 8.93L31.51 8.93Q32.45 8.95 35.18 8.95L35.18 8.95Q35.93 9.05 35.93 9.62L35.93 9.62Q35.93 9.91 35.69 10.18Q35.45 10.44 35.17 10.48Q34.90 10.51 34.00 10.51Q33.10 10.51 31.58 10.49ZM40.44 15.24L40.44 15.24Q40.34 15.84 39.59 15.84Q38.83 15.84 38.83 15.22L38.83 15.22Q38.83 13.80 40.22 9.46L40.22 9.46Q40.85 7.46 41.62 6.14Q42.38 4.82 43.10 4.82L43.10 4.82Q43.49 4.82 43.78 5.28Q44.06 5.74 44.82 7.36Q45.58 8.98 46.08 10.79Q46.58 12.60 47.18 15.22L47.18 15.22Q47.18 15.53 46.97 15.71Q46.75 15.89 46.44 15.89L46.44 15.89Q45.67 15.89 45.48 15.22L45.48 15.22L44.64 11.93Q42.53 11.93 41.26 11.59L41.26 11.59Q40.54 14.23 40.44 15.24ZM43.03 7.03L43.03 7.03Q42.24 8.38 41.74 10.03L41.74 10.03Q42.79 10.32 44.23 10.32L44.23 10.32Q43.78 8.66 43.03 7.03ZM50.14 16.13L49.92 15.26Q49.61 15.02 49.61 14.77Q49.61 14.52 49.78 14.30L49.78 14.30Q49.54 12.46 49.44 10.03Q49.34 7.61 49.34 7.28Q49.34 6.96 49.36 6.59Q49.37 6.22 49.46 5.76L49.46 5.76Q49.63 4.85 50.57 4.85L50.57 4.85Q53.04 4.85 55.33 7.08Q57.62 9.31 57.62 11.93L57.62 11.93Q57.62 13.90 56.40 14.89Q55.18 15.89 53.06 15.89L53.06 15.89Q52.66 15.89 51.91 15.79L51.91 15.79Q51.91 16.18 51.60 16.46Q51.29 16.75 50.88 16.75L50.88 16.75Q50.26 16.75 50.14 16.13L50.14 16.13ZM51.14 6.62L51.14 6.62Q51.12 6.89 51.12 7.54Q51.12 8.18 51.25 10.40Q51.38 12.62 51.60 14.18L51.60 14.18Q51.79 14.23 53.09 14.23L53.09 14.23Q55.90 14.23 55.90 12.65L55.90 12.65Q55.90 10.63 54.61 9.05Q53.33 7.46 51.14 6.62ZM68.23 15.91L68.23 15.91L65.95 15.89Q65.35 15.89 65.28 15.53L65.28 15.53Q65.14 14.52 65.14 12.38L65.14 12.38L65.30 5.42Q65.30 4.82 66.22 4.82L66.22 4.82Q66.67 4.82 66.96 5.04Q67.25 5.26 67.25 5.64L67.25 5.64Q67.20 6.65 66.98 8.42L66.98 8.42Q66.72 10.75 66.72 11.82Q66.72 12.89 66.79 14.38L66.79 14.38L70.34 14.16Q71.14 14.16 71.14 14.98L71.14 14.98Q71.14 15.65 70.63 15.74L70.63 15.74Q69.55 15.91 68.23 15.91ZM77.33 4.92L77.33 4.92Q79.10 4.92 80.20 6.29Q81.29 7.66 81.29 10.03Q81.29 12.41 80.09 14.14Q78.89 15.86 77.04 15.86L77.04 15.86Q75.02 15.86 73.75 14.14Q72.48 12.41 72.48 9.91Q72.48 7.42 73.80 6.17Q75.12 4.92 77.33 4.92ZM79.56 10.30Q79.56 8.38 79.01 7.48Q78.46 6.58 77.06 6.58Q75.67 6.58 74.90 7.43Q74.14 8.28 74.14 9.85Q74.14 11.42 74.95 12.77Q75.77 14.11 77.21 14.11L77.21 14.11Q78.02 14.11 78.60 13.42L78.60 13.42Q79.56 12.22 79.56 10.30ZM92.47 5.57L92.47 5.57Q92.47 5.81 92.23 6.31L92.23 6.31L91.80 7.22Q91.32 8.26 90.68 10.39Q90.05 12.53 89.11 15.05L89.11 15.05Q88.80 15.89 88.15 15.89L88.15 15.89Q87.67 15.89 87.12 14.52L87.12 14.52Q85.68 10.99 83.90 7.70L83.90 7.70Q83.74 7.39 83.64 7.21Q83.54 7.03 83.45 6.88Q83.35 6.72 83.32 6.64Q83.28 6.55 83.26 6.49Q83.23 6.43 83.22 6.36Q83.21 6.29 83.21 6.24L83.21 6.24L83.21 6.10Q83.21 5.81 83.53 5.52Q83.86 5.23 84.18 5.23Q84.50 5.23 84.72 5.40Q84.94 5.57 85.15 5.94Q85.37 6.31 85.54 6.67L85.54 6.67Q86.16 8.04 86.52 8.78Q86.88 9.53 87.18 10.20Q87.48 10.87 87.76 11.59Q88.03 12.31 88.13 12.53L88.13 12.53Q88.30 11.93 89.17 9.48Q90.05 7.03 90.41 6.19L90.41 6.19Q91.01 4.80 91.61 4.80L91.61 4.80Q91.73 4.80 91.85 4.85L91.85 4.85Q92.47 5.06 92.47 5.57ZM96.38 10.49L96.38 10.49L96.43 13.63Q96.43 14.26 96.41 14.30L96.41 14.30L100.56 14.23Q101.26 14.30 101.26 14.83L101.26 14.83Q101.26 15.84 100.32 15.84L100.32 15.84L95.62 15.89Q95.18 15.89 94.98 15.59Q94.78 15.29 94.75 14.95Q94.73 14.62 94.73 14.21L94.73 14.21L94.73 10.22Q94.42 10.06 94.42 9.72Q94.42 9.38 94.68 9.12L94.68 9.12Q94.61 7.25 94.61 5.71L94.61 5.71Q94.61 4.82 95.69 4.80L95.69 4.80Q95.98 4.80 96.36 4.80L96.36 4.80L100.56 4.87L100.58 4.87Q101.35 4.97 101.35 5.59L101.35 5.59Q101.35 6.07 101.06 6.24L101.06 6.24Q100.44 6.58 98.06 6.58L98.06 6.58Q97.18 6.58 96.29 6.50L96.29 6.50Q96.29 8.66 96.31 8.93L96.31 8.93Q97.25 8.95 99.98 8.95L99.98 8.95Q100.73 9.05 100.73 9.62L100.73 9.62Q100.73 9.91 100.49 10.18Q100.25 10.44 99.97 10.48Q99.70 10.51 98.80 10.51Q97.90 10.51 96.38 10.49ZM104.52 14.14Q104.66 13.39 105.31 13.39Q105.96 13.39 106.18 14.06L106.18 14.06Q106.18 15.65 105.67 16.92L105.67 16.92Q105.50 17.38 105.18 17.69Q104.86 18 104.50 18L104.50 18Q103.70 18 103.70 17.16L103.70 17.16Q103.70 16.90 103.78 16.66L103.78 16.66Q104.52 15.82 104.52 14.14L104.52 14.14ZM115.73 8.40L115.73 8.40L115.46 14.23Q115.44 15 115.42 15.26L115.42 15.26Q115.32 15.91 114.58 15.91L114.58 15.91Q114.29 15.91 114.06 15.71Q113.83 15.50 113.81 15.19L113.81 15.19Q114 8.95 114 8.46Q114 7.97 114 7.37Q114 6.77 114.12 6.29L114.12 6.29Q114.29 5.64 114.98 5.64L114.98 5.64Q115.32 5.64 115.82 6.10Q116.33 6.55 117.29 7.78L117.29 7.78Q119.57 10.58 120.74 13.08L120.74 13.08Q120.70 9.67 120.58 7.88Q120.46 6.10 120.46 5.93Q120.46 5.76 120.46 5.74L120.46 5.74Q120.62 4.82 121.44 4.82L121.44 4.82Q121.75 4.82 122.02 5.10Q122.28 5.38 122.28 5.78L122.28 5.78L122.40 14.71Q122.40 15.96 121.39 15.96L121.39 15.96Q120.79 15.96 120.46 15.54Q120.12 15.12 119.98 14.88Q119.83 14.64 119.54 14.11L119.54 14.11Q117.70 10.63 115.73 8.40ZM129.22 4.92L129.22 4.92Q130.99 4.92 132.08 6.29Q133.18 7.66 133.18 10.03Q133.18 12.41 131.98 14.14Q130.78 15.86 128.93 15.86L128.93 15.86Q126.91 15.86 125.64 14.14Q124.37 12.41 124.37 9.91Q124.37 7.42 125.69 6.17Q127.01 4.92 129.22 4.92ZM131.45 10.30Q131.45 8.38 130.90 7.48Q130.34 6.58 128.95 6.58Q127.56 6.58 126.79 7.43Q126.02 8.28 126.02 9.85Q126.02 11.42 126.84 12.77Q127.66 14.11 129.10 14.11L129.10 14.11Q129.91 14.11 130.49 13.42L130.49 13.42Q131.45 12.22 131.45 10.30ZM141.67 6.31L140.09 6.26L140.04 11.95Q140.04 13.73 140.09 15.07L140.09 15.07Q140.11 15.43 139.79 15.66Q139.46 15.89 139.13 15.89L139.13 15.89Q138.50 15.89 138.50 15.22L138.50 15.22Q138.43 12.60 138.43 10.24Q138.43 7.87 138.58 6.34L138.58 6.34Q137.14 6.46 135.65 6.46L135.65 6.46Q134.90 6.46 134.90 5.83L134.90 5.83Q134.90 5.54 135.18 5.26Q135.46 4.97 135.79 4.94L135.79 4.94L143.28 4.70Q143.93 4.85 143.93 5.33L143.93 5.33Q143.93 6.31 141.67 6.31L141.67 6.31ZM160.20 5.57L160.20 5.57Q160.20 5.81 159.96 6.31L159.96 6.31L159.53 7.22Q159.05 8.26 158.41 10.39Q157.78 12.53 156.84 15.05L156.84 15.05Q156.53 15.89 155.88 15.89L155.88 15.89Q155.40 15.89 154.85 14.52L154.85 14.52Q153.41 10.99 151.63 7.70L151.63 7.70Q151.46 7.39 151.37 7.21Q151.27 7.03 151.18 6.88Q151.08 6.72 151.04 6.64Q151.01 6.55 150.98 6.49Q150.96 6.43 150.95 6.36Q150.94 6.29 150.94 6.24L150.94 6.24L150.94 6.10Q150.94 5.81 151.26 5.52Q151.58 5.23 151.91 5.23Q152.23 5.23 152.45 5.40Q152.66 5.57 152.88 5.94Q153.10 6.31 153.26 6.67L153.26 6.67Q153.89 8.04 154.25 8.78Q154.61 9.53 154.91 10.20Q155.21 10.87 155.48 11.59Q155.76 12.31 155.86 12.53L155.86 12.53Q156.02 11.93 156.90 9.48Q157.78 7.03 158.14 6.19L158.14 6.19Q158.74 4.80 159.34 4.80L159.34 4.80Q159.46 4.80 159.58 4.85L159.58 4.85Q160.20 5.06 160.20 5.57ZM162.67 15.89L162.67 15.89Q162 15.89 162 15.31L162 15.31L162.10 5.54Q162.10 5.21 162.34 5.00Q162.58 4.80 162.92 4.80Q163.27 4.80 163.52 4.97Q163.78 5.14 163.80 5.53Q163.82 5.93 163.82 7.30L163.82 7.30Q163.82 13.70 163.73 15.10L163.73 15.10Q163.70 15.41 163.36 15.65Q163.01 15.89 162.67 15.89ZM167.57 14.98L167.57 15Q167.57 15.36 167.23 15.62Q166.90 15.89 166.49 15.89L166.49 15.89Q165.96 15.89 165.96 15.41L165.96 15.41Q165.86 14.28 165.86 6.46L165.86 6.46Q165.86 5.69 166.79 5.26Q167.71 4.82 169.26 4.82Q170.81 4.82 171.97 5.59Q173.14 6.36 173.14 7.44L173.14 7.44Q173.14 7.97 172.68 8.62Q172.22 9.26 171.71 9.64Q171.19 10.01 170.23 10.54Q169.27 11.06 169.06 11.11L169.06 11.11Q170.57 12.07 171.74 13.20Q172.92 14.33 172.92 14.98Q172.92 15.62 172.34 15.82L172.34 15.82Q172.18 15.86 171.91 15.86Q171.65 15.86 171.24 15.35Q170.83 14.83 169.70 13.86Q168.58 12.89 167.47 12.12L167.47 12.12Q167.52 14.04 167.57 14.98L167.57 14.98ZM167.47 9.98L167.47 9.98Q168.26 9.98 169.85 9.20Q171.43 8.42 171.50 7.75L171.50 7.75Q171.50 7.10 170.78 6.78Q170.06 6.46 169.27 6.46L169.27 6.46Q168.36 6.46 167.50 6.67L167.50 6.67Q167.47 7.82 167.47 9.98ZM182.21 5.78L182.21 5.78Q182.18 5.69 182.18 5.47Q182.18 5.26 182.48 5.02Q182.78 4.78 183.10 4.78Q183.41 4.78 183.66 4.97Q183.91 5.16 183.94 5.40L183.94 5.40Q184.18 7.82 184.18 9.22Q184.18 10.61 184.10 11.38L184.10 11.38Q183.94 13.70 182.94 14.80Q181.94 15.89 179.88 15.89L179.88 15.89Q178.37 15.89 177.36 15.01Q176.35 14.14 175.94 12.72L175.94 12.72Q175.32 10.58 175.32 7.97L175.32 7.97Q175.32 6.84 175.44 5.69L175.44 5.69Q175.46 5.35 175.81 5.14Q176.16 4.92 176.46 4.92Q176.76 4.92 176.95 5.11Q177.14 5.30 177.12 5.62L177.12 5.62Q177 6.86 177 7.86Q177 8.86 177.05 9.65L177.05 9.65Q177.19 11.57 177.94 12.92Q178.68 14.28 179.88 14.28L179.88 14.28Q182.50 14.28 182.50 9.82L182.50 9.82Q182.50 7.15 182.21 5.78ZM186.17 7.51Q186.17 6.38 187.32 5.58Q188.47 4.78 190.14 4.78Q191.81 4.78 192.67 5.21Q193.54 5.64 193.54 6.31L193.54 6.31Q193.54 6.62 193.33 6.83Q193.13 7.03 192.84 7.03Q192.55 7.03 191.70 6.65Q190.85 6.26 190.16 6.26Q189.48 6.26 188.72 6.64Q187.97 7.01 187.97 7.56Q187.97 8.11 188.88 8.54Q189.79 8.98 191.04 9.29Q192.29 9.60 192.71 9.90Q193.13 10.20 193.31 10.38Q193.49 10.56 193.68 11.08Q193.87 11.59 193.87 12.41L193.87 12.41Q193.87 14.16 192.73 15.01Q191.59 15.86 190.02 15.86Q188.45 15.86 187.32 15.36Q186.19 14.86 186.19 14.11L186.19 14.11Q186.19 13.73 186.52 13.43Q186.84 13.13 187.20 13.27L187.20 13.27Q189.46 14.16 190.03 14.16L190.03 14.16Q191.06 14.16 191.62 13.64Q192.17 13.13 192.17 12.34Q192.17 11.54 191.54 11.12Q190.92 10.70 190.04 10.51Q189.17 10.32 188.29 10.08Q187.42 9.84 186.79 9.24Q186.17 8.64 186.17 7.51ZM197.71 10.49L197.71 10.49L197.76 13.63Q197.76 14.26 197.74 14.30L197.74 14.30L201.89 14.23Q202.58 14.30 202.58 14.83L202.58 14.83Q202.58 15.84 201.65 15.84L201.65 15.84L196.94 15.89Q196.51 15.89 196.31 15.59Q196.10 15.29 196.08 14.95Q196.06 14.62 196.06 14.21L196.06 14.21L196.06 10.22Q195.74 10.06 195.74 9.72Q195.74 9.38 196.01 9.12L196.01 9.12Q195.94 7.25 195.94 5.71L195.94 5.71Q195.94 4.82 197.02 4.80L197.02 4.80Q197.30 4.80 197.69 4.80L197.69 4.80L201.89 4.87L201.91 4.87Q202.68 4.97 202.68 5.59L202.68 5.59Q202.68 6.07 202.39 6.24L202.39 6.24Q201.77 6.58 199.39 6.58L199.39 6.58Q198.50 6.58 197.62 6.50L197.62 6.50Q197.62 8.66 197.64 8.93L197.64 8.93Q198.58 8.95 201.31 8.95L201.31 8.95Q202.06 9.05 202.06 9.62L202.06 9.62Q202.06 9.91 201.82 10.18Q201.58 10.44 201.30 10.48Q201.02 10.51 200.12 10.51Q199.22 10.51 197.71 10.49ZM204.89 7.51Q204.89 6.38 206.04 5.58Q207.19 4.78 208.86 4.78Q210.53 4.78 211.39 5.21Q212.26 5.64 212.26 6.31L212.26 6.31Q212.26 6.62 212.05 6.83Q211.85 7.03 211.56 7.03Q211.27 7.03 210.42 6.65Q209.57 6.26 208.88 6.26Q208.20 6.26 207.44 6.64Q206.69 7.01 206.69 7.56Q206.69 8.11 207.60 8.54Q208.51 8.98 209.76 9.29Q211.01 9.60 211.43 9.90Q211.85 10.20 212.03 10.38Q212.21 10.56 212.40 11.08Q212.59 11.59 212.59 12.41L212.59 12.41Q212.59 14.16 211.45 15.01Q210.31 15.86 208.74 15.86Q207.17 15.86 206.04 15.36Q204.91 14.86 204.91 14.11L204.91 14.11Q204.91 13.73 205.24 13.43Q205.56 13.13 205.92 13.27L205.92 13.27Q208.18 14.16 208.75 14.16L208.75 14.16Q209.78 14.16 210.34 13.64Q210.89 13.13 210.89 12.34Q210.89 11.54 210.26 11.12Q209.64 10.70 208.76 10.51Q207.89 10.32 207.01 10.08Q206.14 9.84 205.51 9.24Q204.89 8.64 204.89 7.51Z" transform="translate(0, 9)"></path></svg>